<?xml version="1.0" standalone="no"?>
<!DOCTYPE svg PUBLIC "-//W3C//DTD SVG 20010904//EN"
 "http://www.w3.org/TR/2001/REC-SVG-20010904/DTD/svg10.dtd">
<svg version="1.0" xmlns="http://www.w3.org/2000/svg"
 width="239.000000pt" height="211.000000pt" viewBox="0 0 239.000000 211.000000"
 preserveAspectRatio="xMidYMid meet">

<g transform="translate(0.000000,211.000000) scale(0.100000,-0.100000)"
fill="#000000" stroke="none">
<path d="M986 1228 c-34 -59 -47 -121 -36 -180 14 -72 29 -94 142 -206 l104
-102 110 112 c121 123 137 152 137 245 0 39 -8 69 -29 110 -52 101 -73 68 -29
-47 32 -85 2 -181 -74 -235 -38 -27 -51 -30 -116 -30 -65 0 -78 3 -116 30 -76
54 -106 150 -74 235 23 59 30 110 17 110 -6 0 -22 -19 -36 -42z"/>
<path d="M0 95 l0 -95 1195 0 1195 0 0 95 0 95 -1195 0 -1195 0 0 -95z m336
23 c4 -6 3 -8 -4 -4 -6 3 -13 2 -17 -4 -3 -5 1 -10 10 -10 24 0 14 -34 -10
-37 -16 -1 -16 -1 -2 3 21 7 22 13 0 29 -9 7 -13 17 -9 23 9 15 23 15 32 0z
m28 -27 c1 -16 -2 -28 -6 -25 -4 3 -8 19 -8 36 0 39 11 30 14 -11z m-231 13
c7 1 9 1 5 -1 -12 -7 -9 -31 5 -36 9 -4 9 -6 -1 -6 -7 -1 -17 11 -22 25 -10
25 -13 50 -4 27 3 -7 11 -11 17 -9z m80 -9 c-7 -21 -12 -19 -10 4 0 11 5 18 9
15 4 -3 5 -11 1 -19z m270 11 c7 2 12 -5 12 -20 0 -17 -3 -22 -12 -15 -7 7
-13 5 -16 -3 -3 -7 -6 -3 -6 10 -1 12 -7 22 -16 22 -17 0 -19 -12 -5 -26 7 -7
-1 -10 -24 -11 -22 -1 -37 4 -40 14 -9 22 3 35 28 30 11 -3 30 -2 41 3 11 4
21 4 23 -1 2 -4 9 -6 15 -3z m-207 -11 c-6 -7 -13 -9 -16 -5 -3 4 -12 9 -20
12 -8 3 -1 6 16 5 25 0 29 -3 20 -12z m-175 -9 c5 3 9 1 9 -5 0 -5 -4 -13 -10
-16 -5 -3 -10 -4 -10 -1 0 2 -2 10 -3 18 -2 7 -2 10 0 5 3 -4 9 -5 14 -1z
m2049 4 c0 8 3 11 6 7 3 -3 1 -14 -5 -24 -6 -11 -11 -13 -11 -5 0 7 -4 11 -8
8 -5 -3 -9 1 -9 9 0 11 4 12 14 4 10 -9 13 -8 13 1z m60 -5 c0 -8 -4 -15 -10
-15 -5 0 -7 7 -4 15 4 8 8 15 10 15 2 0 4 -7 4 -15z m21 -8 c-10 -9 -11 -8 -5
6 3 10 9 15 12 12 3 -3 0 -11 -7 -18z m39 8 c0 -8 -4 -15 -10 -15 -5 0 -7 7
-4 15 4 8 8 15 10 15 2 0 4 -7 4 -15z m47 -7 c-3 -8 -6 -5 -6 6 -1 11 2 17 5
13 3 -3 4 -12 1 -19z m-543 3 c-8 -8 -34 -10 -38 -2 -3 4 6 7 19 7 14 0 22 -2
19 -5z m286 -3 c0 -4 -4 -8 -9 -8 -6 0 -12 4 -15 8 -3 5 1 9 9 9 8 0 15 -4 15
-9z m30 8 c0 -3 -4 -8 -10 -11 -5 -3 -10 -1 -10 4 0 6 5 11 10 11 6 0 10 -2
10 -4z"/>
<path d="M385 91 c-6 -11 9 -23 19 -14 9 9 7 23 -3 23 -6 0 -12 -4 -16 -9z"/>
</g>
</svg>
