<?xml version="1.0" standalone="no"?>
<!DOCTYPE svg PUBLIC "-//W3C//DTD SVG 20010904//EN"
 "http://www.w3.org/TR/2001/REC-SVG-20010904/DTD/svg10.dtd">
<svg version="1.0" xmlns="http://www.w3.org/2000/svg"
 width="16" height="16" viewBox="0 0 1000.000000 880.000000"
 preserveAspectRatio="xMidYMid meet">

<g transform="translate(0.000000,880.000000) scale(0.018,-0.018)"
fill="#00ff00" stroke="none"> <!-- Adjusted scale for favicon size -->
<path fill="#0000ff" d="M4065 5039 c-179 -125 -279 -256 -321 -419 -23 -92 -15 -322 14 -403
113 -311 492 -541 982 -598 124 -14 408 -6 518 14 l73 14 78 -91 c120 -138
453 -497 481 -518 68 -49 196 -27 281 50 59 53 88 105 96 171 12 103 -21 145
-303 392 -101 88 -184 164 -184 167 1 4 26 23 56 42 31 19 93 74 138 121 143
147 193 284 183 499 -3 63 -13 140 -22 170 -41 135 -161 286 -304 382 l-76 50
-3 -56 c-3 -53 -1 -59 25 -78 59 -45 145 -145 174 -203 40 -81 55 -174 40
-246 -57 -272 -370 -483 -816 -549 -128 -20 -380 -15 -519 9 -387 68 -674 256
-746 490 -51 164 3 321 161 464 68 62 69 62 69 115 0 28 -4 52 -8 52 -5 0 -35
-18 -67 -41z"/>
<path fill="#ff0000" d="M0 400 l0 -400 5000 0 5000 0 0 400 0 400 -5000 0 -5000 0 0 -400z
m2192 123 c23 -20 23 -57 1 -74 -15 -11 -16 -11 -5 1 27 31 11 72 -33 83 -19
4 -19 5 -1 6 11 0 28 -6 38 -16z m-69 -8 c-3 -9 -8 -14 -10 -11 -3 3 -2 9 2
15 9 16 15 13 8 -4z m-1760 -114 c22 -61 43 -108 47 -104 4 4 24 56 45 116 21
59 42 107 47 107 11 0 9 -5 -42 -149 -23 -64 -44 -107 -53 -109 -15 -3 -17 0
-67 143 -15 44 -31 88 -36 99 -5 13 -3 17 6 14 8 -2 32 -55 53 -117z m517 89
c0 -23 4 -30 20 -30 11 0 20 -4 20 -10 0 -5 -10 -10 -21 -10 -20 0 -21 -4 -17
-71 3 -55 8 -74 23 -85 23 -17 14 -29 -13 -15 -11 6 -22 25 -26 42 -10 51 -7
209 4 209 6 0 10 -13 10 -30z m515 16 c25 -11 33 -19 29 -30 -7 -19 -5 -19
-40 -1 -36 18 -55 19 -78 2 -28 -21 -9 -45 49 -62 87 -25 108 -74 54 -127 -29
-29 -33 -30 -90 -25 -68 6 -72 8 -64 29 5 13 12 14 40 5 50 -15 100 1 100 33
0 16 -8 28 -25 36 -87 40 -105 51 -108 67 -14 70 53 106 133 73z m105 -16 c0
-25 4 -30 25 -30 16 0 25 -6 25 -15 0 -9 -9 -15 -25 -15 -24 0 -25 -3 -25 -60
0 -55 2 -62 25 -72 14 -6 25 -15 25 -20 0 -18 -31 -20 -55 -4 -24 16 -25 20
-25 131 0 96 3 115 15 115 10 0 15 -10 15 -30z m482 -32 l3 -62 36 32 c20 18
45 32 55 32 14 0 9 -9 -21 -40 l-39 -40 42 -60 c40 -57 41 -60 20 -60 -16 0
-32 14 -53 45 -16 25 -33 45 -37 45 -5 0 -8 -20 -8 -45 0 -38 -3 -45 -20 -45
-19 0 -20 7 -20 130 0 122 1 130 20 130 16 0 19 -8 22 -62z m193 30 c1 -20 -2
-24 -11 -17 -8 7 -14 6 -17 -3 -3 -7 -6 2 -6 20 -1 27 3 33 17 30 11 -2 17
-13 17 -30z m-44 -35 c13 -16 12 -17 -3 -4 -17 13 -22 21 -14 21 2 0 10 -8 17
-17z m-1502 -19 c12 -15 21 -40 21 -55 0 -29 0 -29 -65 -29 -72 0 -83 -12 -44
-51 17 -17 30 -20 65 -16 43 4 59 -5 28 -17 -45 -17 -106 3 -123 41 -45 98 56
206 118 127z m191 16 c17 -11 10 -13 -40 -10 -47 2 -75 -28 -75 -80 0 -55 26
-80 82 -80 27 0 42 -4 38 -10 -9 -15 -78 -12 -102 5 -50 35 -50 135 0 170 24
17 74 20 97 5z m265 -13 c20 -16 28 -35 32 -69 5 -42 3 -50 -25 -78 -41 -41
-83 -41 -124 0 -28 28 -30 36 -25 78 9 82 84 119 142 69z m85 7 c0 -14 2 -14
22 0 24 17 38 20 38 9 0 -5 -14 -16 -30 -25 -29 -17 -30 -19 -30 -93 0 -43 -4
-75 -10 -75 -6 0 -10 40 -10 100 0 60 4 100 10 100 6 0 10 -7 10 -16z m537 1
c30 -21 44 -75 32 -120 -25 -88 -143 -88 -168 0 -20 72 20 135 84 135 17 0 40
-7 52 -15z m198 -5 c0 -10 -8 -14 -27 -12 -58 6 -91 -42 -67 -100 11 -28 36
-40 74 -35 12 1 20 -4 20 -13 0 -19 -48 -25 -85 -10 -63 26 -68 148 -6 179 31
15 91 9 91 -9z m5374 -83 c8 -26 17 -47 21 -47 4 0 13 21 21 47 8 25 20 48 27
51 8 2 4 -19 -12 -63 -36 -99 -36 -99 -72 0 -16 44 -20 65 -12 63 7 -3 19 -26
27 -51z m638 38 c2 -6 -9 -11 -23 -10 -38 0 -40 -20 -5 -35 69 -26 83 -48 83
-83 0 -23 -10 -28 -59 -29 -32 0 -72 5 -88 11 -26 8 -22 13 22 37 42 21 66 25
66 15z m119 -28 c-29 -29 -55 -39 -95 -39 -39 0 -66 6 -66 15 0 8 16 15 35 15
21 0 35 -6 35 -15z m244 -72 c0 -10 -13 -15 -30 -12 -16 3 -30 8 -30 12 0 4
16 9 35 12 19 4 35 0 35 -12z m39 -46 c15 -15 20 -26 15 -31 -8 -8 -29 -6
-45 5 -24 15 -24 15 -24 30 0 15 4 15 24 0 13 -9 25 -15 28 -15 3 0 16 -12
24 -24z m318 -136 c48 -45 81 -89 81 -100 0 -25 -6 -23 -38 20 -25 35 -60 64
-100 82 -41 17 -41 17 -38 42 5 37 25 36 57 -2 23 -25 41 -47 41 -49z m-155
-21 c3 -8 0 -16 -7 -20 -8 -5 -15 -2 -15 7 0 9 6 15 15 15 9 0 15 -5 15 -10z
m150 -155 c-26 -29 -66 -30 -83 -2 -18 29 -18 38 0 66 23 34 63 38 83 6 12
-14 19 -34 19 -46 0 -21 -1 -22 -19 -28 -20 -7 -20 -7 -19 -36 0 -28 0 -29
-5 -13 -5 16 -5 17 0 9 5 -9 5 -20 0 -26z m-563 -90 c-3 -8 -13 -12 -19 -9 -5
3 -10 10 -10 15 0 5 5 8 10 5 5 -3 10 -10 10 -16z m1583 -115 c0 -19 -31 -19
-31 0 0 16 31 19 31 3z m-552 -49 c-22 -22 -31 -27 -43 -19 -21 13 -21 17
-6 31 8 8 19 15 25 15 6 0 1 -8 -10 -17z m28 -16 c11 -12 12 -16 6 -16 -8 0
-10 4 -6 16 5 11 7 14 10 9z m-648 -92 c-5 -5 -10 -10 -10 -13 0 -4 5 -8
10 -8 6 0 10 4 10 10 0 5 -5 10 -10 10 -5 0 -10 -5 -10 -10 0 -5 5 -10 10
-10 6 0 10 4 10 10 0 5 -5 10 -10 10z m410 12 c0 -11 -9 -15 -30 -12 -17 2
-30 9 -30 12 0 3 12 7 27 7 15 0 30 -4 30 -7z m-558 -39 c10 -5 10 -9 0 -14
-8 -5 -11 -4 -9 3 3 8 9 8 9 1z m-118 -9 c-10 -10 -22 -16 -26 -12 -6 6 4 20
16 20 3 0 1 -9 -4 -20z m-165 12 c5 -10 -9 -22 -23 -22 -10 0 -14 3 -11 6 3
3 8 16 11 27 6 18 13 18 23 4z m260 -23 c-5 -5 -20 -10 -35 -10 -15 0 -30 5
-35 10 -5 5 0 10 10 10 10 0 23 -5 28 -10z m-256 -20 c-10 -10 -22 -16 -26
-12 -6 6 4 20 16 20 3 0 1 -9 -4 -20z"/>
</g>
</svg>
